<svg xmlns="http://www.w3.org/2000/svg"  viewBox="0 0 48 48" width="48px" height="48px"><polygon fill="#4b7bb2" points="12.663,27.862 18.189,17.423 19.844,16.614 24.247,8.681 28.56,16.614 30.088,17.28 35.756,27.702 24.21,39.048 12.663,28.093"/><path fill="#febf10" d="M25.635,27.739c0,0-0.7-1.249,0.601-1.274s5.09-0.438,5.023,0.87 c-0.068,1.309-0.945,2.138-0.945,2.138L29.7,30.352l0.04,1.802l-1.775,1.011c0,0-4.671,2.356-7.592,0.281 c-2.92-2.074-3.878-5.394-3.926-8.059s2.346-6.128,4.899-6.479s4.468-2.202,6.814,0.255c0,0,0.88-0.815,1.517,0.718 c0,0,0.86,3.958,0.19,4.245s-1.931,1.021-2.41-1.707c0,0-1.915-3.144-5.537-0.191c0,0-2.157,5.082-0.112,8.569 c0,0,3.479,2.378,4.723-0.941l-0.08-1.691L25.635,27.739z"/><polygon fill="#febf10" points="6.998,35.588 20.371,7.34 20.079,4.344 21.244,1.787 23.149,0.722 25.734,0.722 26.626,1.43 27.843,3.576 28.018,5.138 27.622,6.982 41.945,36.554 38.612,35.48 37.843,32.592 30.697,18.123 28.56,16.614 24.247,8.681 20.088,16.322 18.189,17.423 9.366,35.176 6.998,36.29"/><polygon fill="#febf10" points="2.77,24.922 23.867,46.875 45.116,25.159 41.764,21.953 24.21,39.441 6.469,21.733"/><path fill="#010101" d="M12.5,28.58c1.669,2.083,3.482,4.048,5.436,5.867c1.915,1.784,4.053,3.345,5.754,5.348 c0.176,0.208,0.526,0.177,0.707,0c3.51-3.424,7.121-6.75,10.692-10.111c0.438-0.413,0.877-0.825,1.316-1.238 c0.47-0.442-0.238-1.148-0.707-0.707c-3.292,3.095-6.582,6.19-9.861,9.299c-0.718,0.681-1.439,1.359-2.147,2.05 c0.236,0,0.471,0,0.707,0c-1.701-2.003-3.839-3.564-5.754-5.348c-1.954-1.82-3.766-3.784-5.436-5.867 C12.805,27.37,12.101,28.082,12.5,28.58L12.5,28.58z"/><path fill="#010101" d="M25.305,3.731c0.093,0.18,0.167,0.361,0.215,0.558c0.013,0.052,0.023,0.105,0.032,0.157 c-0.013-0.081,0-0.002,0.001,0.013c0.006,0.086,0.007,0.171,0.005,0.258c-0.001,0.029-0.022,0.155,0.003,0.014 c-0.004,0.022-0.006,0.044-0.011,0.066c-0.011,0.048-0.021,0.096-0.035,0.143c-0.02,0.071-0.044,0.141-0.071,0.21 c-0.259,0.656-1.295,0.978-1.952,0.827c-0.183-0.042-0.337-0.104-0.494-0.207C22.94,5.733,22.9,5.702,22.831,5.635 c-0.061-0.059-0.137-0.144-0.162-0.18c-0.11-0.154-0.162-0.256-0.207-0.412c-0.03-0.103-0.037-0.134-0.042-0.196 c-0.009-0.111-0.005-0.2,0.005-0.258c0.065-0.373,0.252-0.684,0.509-0.948c0.129-0.133,0.269-0.262,0.426-0.361 c0.064-0.041,0.17-0.098,0.217-0.117c0.045-0.018,0.093-0.032,0.14-0.045c0.02-0.005,0.176-0.038,0.116-0.03 c0.107-0.015,0.216-0.01,0.324-0.005c0.053,0.002,0.09,0.01,0.201,0.039c0.09,0.023,0.179,0.052,0.264,0.088 c-0.088-0.037,0.056,0.029,0.059,0.031c0.042,0.021,0.084,0.044,0.126,0.068c0.078,0.045,0.152,0.096,0.226,0.147 c0.112,0.077-0.047-0.041,0.014,0.01c0.034,0.029,0.068,0.057,0.101,0.088c0.048,0.045,0.09,0.097,0.138,0.141 c0.032,0.03,0.016,0.06-0.028-0.038C25.269,3.683,25.291,3.707,25.305,3.731c0.314,0.562,1.178,0.058,0.863-0.505 C26,2.925,25.694,2.687,25.409,2.506c-0.403-0.256-0.88-0.418-1.36-0.427c-1.132-0.02-2.154,0.929-2.511,1.955 C21.17,5.093,21.727,6.306,22.74,6.77c1.077,0.493,2.555,0.2,3.317-0.734c0.248-0.304,0.414-0.684,0.472-1.074 c0.091-0.612-0.081-1.193-0.361-1.736c-0.124-0.24-0.46-0.311-0.684-0.179C25.241,3.189,25.181,3.49,25.305,3.731z"/><path fill="#010101" d="M25.93,1.486c1.048,0.764,1.75,2.363,1.56,3.651c-0.1,0.676-0.466,1.233-1.014,1.632 c-0.559,0.407-1.269,0.798-1.94,0.974c-0.701,0.184-1.489-0.139-2.128-0.418c-0.651-0.284-1.284-0.693-1.646-1.322 c-0.726-1.26,0.151-2.934,1.126-3.796c0.578-0.511,1.322-0.835,2.083-0.946C24.552,1.176,25.415,1.148,25.93,1.486 c0.539,0.355,1.041-0.511,0.505-0.863c-0.618-0.407-1.567-0.446-2.279-0.384c-0.886,0.078-1.76,0.366-2.491,0.88 c-1.398,0.983-2.56,2.958-2.058,4.71c0.255,0.892,0.933,1.598,1.716,2.063c0.758,0.45,1.727,0.839,2.612,0.902 c0.946,0.068,1.899-0.452,2.686-0.927c0.748-0.451,1.367-1.05,1.677-1.882c0.697-1.871-0.31-4.232-1.863-5.364 C25.914,0.243,25.414,1.111,25.93,1.486z"/><path fill="#010101" d="M20.062,6.647c-0.296,1.183-0.884,2.313-1.401,3.409c-0.884,1.87-1.819,3.716-2.752,5.562 c-2.304,4.557-4.641,9.1-6.782,13.737c-1.071,2.319-2.104,4.662-2.968,7.066c-0.189,0.526,0.489,0.756,0.836,0.486 c0.398-0.309,0.83-0.577,1.283-0.797c0.269-0.131,0.546-0.242,0.83-0.335c0.2-0.066,0.459-0.091,0.614-0.246 c0.29-0.29,0.399-0.924,0.548-1.301c0.227-0.575,0.459-1.148,0.696-1.719c0.887-2.137,1.848-4.243,2.876-6.316 c1.03-2.077,2.129-4.12,3.293-6.124c0.48-0.826,0.932-1.907,1.653-2.555c0.381-0.342,0.829-0.224,1.251-0.444 c0.413-0.215,0.619-0.721,0.843-1.105c1.349-2.308,2.543-4.703,3.588-7.164c0.249-0.586-0.612-1.096-0.863-0.505 c-0.83,1.954-1.753,3.867-2.775,5.728c-0.246,0.448-0.498,0.893-0.755,1.334c-0.124,0.213-0.239,0.549-0.42,0.711 c-0.183,0.164-0.347,0.135-0.574,0.185c-0.728,0.158-1.227,0.731-1.623,1.325c-1.129,1.695-2.093,3.532-3.051,5.327 c-0.982,1.841-1.91,3.711-2.781,5.607c-0.986,2.146-1.899,4.325-2.743,6.53c0.116-0.116,0.233-0.233,0.349-0.349 c-1.086,0.307-2.057,0.816-2.947,1.507c0.279,0.162,0.557,0.324,0.836,0.486c1.642-4.566,3.822-8.944,5.979-13.283 c2.07-4.165,4.245-8.281,6.249-12.478c0.614-1.286,1.328-2.622,1.676-4.013C21.183,6.288,20.218,6.022,20.062,6.647L20.062,6.647z"/><path fill="#010101" d="M26.989,6.622c0.312,1.247,0.95,2.444,1.502,3.595c0.924,1.927,1.903,3.827,2.881,5.727 c2.382,4.628,4.806,9.237,7.027,13.945c1.05,2.224,2.077,4.472,2.882,6.798c0.279-0.162,0.557-0.324,0.836-0.486 c-0.89-0.691-1.861-1.2-2.947-1.507c0.116,0.116,0.233,0.233,0.349,0.349c-1.48-3.866-3.175-7.648-5.091-11.317 c-0.966-1.849-1.987-3.67-3.061-5.459c-0.392-0.653-0.795-1.387-1.472-1.787c-0.326-0.192-0.658-0.142-0.978-0.274 c-0.367-0.152-0.689-1.016-0.884-1.358c-1.206-2.119-2.282-4.308-3.235-6.551c-0.251-0.59-1.113-0.081-0.863,0.505 c0.922,2.171,1.96,4.291,3.119,6.346c0.269,0.477,0.53,0.969,0.83,1.427c0.276,0.422,0.547,0.555,1.033,0.631 c0.975,0.153,1.431,1.3,1.884,2.064c2.345,3.955,4.432,8.063,6.24,12.291c0.525,1.227,0.921,2.557,1.514,3.749 c0.214,0.429,0.713,0.441,1.128,0.605c0.617,0.244,1.203,0.587,1.727,0.994c0.35,0.272,1.018,0.041,0.836-0.486 c-1.543-4.455-3.741-8.702-5.863-12.901c-2.194-4.341-4.495-8.63-6.636-12.998c-0.652-1.331-1.432-2.717-1.794-4.166 C27.797,5.733,26.832,5.997,26.989,6.622L26.989,6.622z"/><path fill="#010101" d="M28.292,18.908c-0.578-1.256-2.567-1.388-3.751-1.324c-1.468,0.079-2.996,0.484-4.334,1.089 c-2.652,1.2-3.788,4.092-3.984,6.83c-0.109,1.516-0.11,3.219,0.661,4.578c0.679,1.198,1.714,2.443,2.798,3.291 c2.409,1.883,5.6,1.397,8.248,0.343c1.263-0.503,2.362-1.1,2.303-2.622c-0.013-0.337-0.117-0.743,0.04-1.061 c0.125-0.255,0.416-0.411,0.632-0.576c0.474-0.363,0.811-0.803,0.85-1.418c0.033-0.521-0.078-1.217-0.5-1.572 c-0.482-0.405-1.347-0.363-1.941-0.421c-0.793-0.077-1.591-0.115-2.388-0.11c-0.648,0.004-1.37,0.029-1.799,0.593 c-0.329,0.432-0.32,0.966,0.006,1.396c0.419,0.552,1.125,0.626,0.939,1.478c-0.156,0.714-0.466,1.466-1.223,1.679 c-0.656,0.185-1.486,0.118-2.117-0.131c-1.545-0.608-1.352-2.728-1.384-4.098c-0.035-1.474,0.016-3.381,1.097-4.522 c0.646-0.682,1.591-0.766,2.479-0.739c0.94,0.029,1.908,0.244,2.132,1.279c0.153,0.707,0.251,1.315,0.879,1.77 c0.495,0.359,1.232,0.539,1.797,0.227c0.636-0.351,0.691-1.201,0.755-1.841c0.092-0.913,0.036-1.854-0.173-2.749 c-0.155-0.663-0.443-1.348-1.083-1.672c-0.544-0.275-1.131-0.182-1.584,0.205c-0.491,0.418,0.22,1.122,0.707,0.707 c0.613-0.523,0.981,0.927,1.045,1.26c0.153,0.794,0.172,1.619,0.066,2.419c-0.046,0.351-0.065,0.898-0.546,0.814 c-0.252-0.044-0.494-0.211-0.638-0.42c-0.365-0.53-0.216-1.27-0.587-1.827c-0.647-0.973-1.898-1.168-2.977-1.175 c-1.157-0.008-2.332,0.26-3.107,1.181c-1.614,1.919-1.397,5.056-1.12,7.377c0.136,1.142,0.594,2.147,1.685,2.649 c0.919,0.422,2.149,0.528,3.112,0.196c1.036-0.357,1.56-1.394,1.771-2.415c0.099-0.481,0.08-0.989-0.197-1.41 c-0.12-0.183-0.286-0.322-0.455-0.458c-0.081-0.065-0.169-0.12-0.248-0.187c-0.065-0.045-0.126-0.096-0.183-0.151 c-0.145-0.098-0.128-0.183,0.051-0.254c0.299-0.389,1.648-0.179,2.095-0.159c0.358,0.016,0.716,0.042,1.074,0.075 c0.298,0.028,1.064-0.001,1.313,0.164c0.245,0.162,0.299,0.63,0.236,0.892c-0.073,0.308-0.301,0.466-0.54,0.648 c-0.39,0.297-0.768,0.593-0.92,1.082c-0.172,0.555,0.035,1.107-0.049,1.661c-0.103,0.678-0.801,0.954-1.366,1.187 c-1.272,0.525-2.623,0.959-4.009,0.994c-1.344,0.033-2.667-0.315-3.71-1.19c-0.959-0.805-1.952-1.968-2.51-3.091 c-0.669-1.346-0.544-3.216-0.338-4.662c0.21-1.475,0.745-2.945,1.786-4.039c1.007-1.058,2.408-1.504,3.794-1.836 c0.762-0.183,1.542-0.296,2.327-0.266c0.676,0.026,1.893,0.129,2.218,0.836C27.697,19.997,28.559,19.49,28.292,18.908 L28.292,18.908z"/><path fill="#010101" d="M9.1,31c-1.637-1.393-3.224-2.889-4.627-4.519c-0.222-0.258-0.441-0.521-0.645-0.793 c-0.179-0.238-0.323-0.535-0.517-0.757c-0.016-0.027-0.032-0.053-0.048-0.08c0.015,0.143,0.048,0.164,0.102,0.062 c0.077-0.028,0.154-0.183,0.211-0.248c0.16-0.184,0.326-0.363,0.498-0.537c0.342-0.348,0.706-0.676,1.089-0.979 c0.391-0.309,0.854-0.535,1.237-0.846c0.023-0.014,0.047-0.027,0.07-0.041c0.145-0.069,0.086-0.081-0.176-0.035 c-0.005,0.015,0.078,0.087,0.087,0.108c0.052,0.111,0.189,0.218,0.271,0.308c0.442,0.482,0.914,0.936,1.386,1.387 c0.54,0.516,1.089,1.024,1.634,1.536c0.36,0.338,0.782,0.935,1.3,0.961c0.643,0.032,0.642-0.968,0-1 c-0.035-0.002-0.07-0.004-0.105-0.005c0.118,0.049,0.236,0.098,0.354,0.146c-0.936-0.789-1.809-1.701-2.69-2.551 c-0.478-0.461-0.964-0.924-1.394-1.431c-0.238-0.28-0.49-0.538-0.894-0.422c-0.459,0.131-0.918,0.526-1.298,0.804 c-0.845,0.619-1.619,1.33-2.286,2.138c-0.275,0.334-0.488,0.625-0.302,1.063c0.127,0.298,0.355,0.578,0.545,0.837 C3.84,27.382,4.96,28.523,6.1,29.619c0.745,0.716,1.507,1.419,2.295,2.089C8.881,32.122,9.591,31.418,9.1,31L9.1,31z"/><path fill="#010101" d="M10.297,33.725c1.961,2.351,4.364,4.258,6.547,6.391c2.322,2.27,4.469,4.727,6.669,7.113 c0.188,0.204,0.515,0.177,0.707,0c1.737-1.604,3.381-3.317,5.05-4.99c2.309-2.313,4.612-4.633,6.898-6.969 c0.681-0.696,1.375-1.383,2.027-2.106c0.43-0.477-0.275-1.186-0.707-0.707c-1.545,1.711-3.216,3.32-4.836,4.959 c-2.31,2.335-4.626,4.665-6.959,6.978c-0.721,0.715-1.435,1.44-2.181,2.129c0.236,0,0.471,0,0.707,0 c-2.201-2.386-4.347-4.843-6.669-7.113c-2.182-2.133-4.585-4.04-6.547-6.391C10.592,32.524,9.888,33.234,10.297,33.725 L10.297,33.725z"/><path fill="#010101" d="M37.711,26.642c1.477-1.621,3.045-3.153,4.7-4.592c-0.236,0-0.471,0-0.707,0 c0.696,0.671,1.365,1.37,1.997,2.101c0.149,0.172,0.296,0.346,0.441,0.521c0.073,0.088,0.145,0.176,0.216,0.264 c0.054,0.066,0.107,0.133,0.16,0.2c0.046,0.098,0.077,0.088,0.095-0.029c0.063-0.118,0.056-0.127-0.02-0.027 c-0.041,0.046-0.082,0.091-0.124,0.137c-0.082,0.091-0.165,0.183-0.247,0.274c-0.186,0.205-0.371,0.411-0.557,0.616 c-1.402,1.553-2.804,3.105-4.206,4.658c-0.43,0.477,0.275,1.186,0.707,0.707c1.608-1.781,3.216-3.562,4.824-5.343 c0.289-0.321,0.724-0.668,0.594-1.15c-0.113-0.417-0.572-0.821-0.844-1.145c-0.73-0.872-1.51-1.701-2.329-2.49 c-0.205-0.197-0.5-0.18-0.707,0c-1.655,1.438-3.224,2.971-4.7,4.592C36.571,26.41,37.276,27.119,37.711,26.642L37.711,26.642z"/><path fill="#010101" d="M5.163,27.461c0.316-0.335,0.658-0.645,1.022-0.927c-0.034,0.026-0.067,0.052-0.101,0.078 c0.065-0.05,0.13-0.099,0.196-0.147c0.108-0.079,0.193-0.165,0.23-0.299c0.033-0.12,0.018-0.279-0.05-0.385 c-0.069-0.107-0.171-0.201-0.299-0.23c-0.123-0.028-0.279-0.028-0.385,0.05c-0.473,0.346-0.917,0.727-1.319,1.152 c-0.09,0.095-0.146,0.222-0.146,0.354c0,0.123,0.054,0.269,0.146,0.354c0.095,0.087,0.22,0.152,0.354,0.146 C4.94,27.601,5.071,27.558,5.163,27.461L5.163,27.461z"/><path fill="#010101" d="M41.693,25.988c0.022,0.017,0.045,0.034,0.067,0.051c-0.034-0.026-0.067-0.052-0.101-0.078 c0.387,0.3,0.735,0.648,1.035,1.035c-0.026-0.034-0.052-0.067-0.078-0.101c0.03,0.039,0.059,0.078,0.088,0.117 c0.08,0.108,0.165,0.193,0.299,0.23c0.12,0.033,0.279,0.018,0.385-0.05c0.107-0.069,0.201-0.171,0.23-0.299 c0.028-0.123,0.028-0.279-0.05-0.385c-0.193-0.263-0.399-0.515-0.629-0.747c-0.23-0.232-0.48-0.44-0.741-0.636 c-0.097-0.073-0.274-0.081-0.385-0.05c-0.116,0.032-0.242,0.122-0.299,0.23c-0.061,0.116-0.092,0.257-0.05,0.385 c0.017,0.04,0.034,0.08,0.05,0.119C41.558,25.883,41.617,25.943,41.693,25.988L41.693,25.988z"/><path fill="#010101" d="M12.398,34.504c0.3-0.338,0.631-0.648,0.988-0.925c-0.034,0.026-0.067,0.052-0.101,0.078 c0.082-0.063,0.165-0.125,0.25-0.185c0.108-0.077,0.193-0.166,0.23-0.299c0.033-0.12,0.018-0.279-0.05-0.385 c-0.069-0.107-0.171-0.201-0.299-0.23c-0.124-0.028-0.277-0.027-0.385,0.05c-0.488,0.347-0.941,0.74-1.339,1.189 c-0.088,0.1-0.146,0.217-0.146,0.354c0,0.123,0.054,0.269,0.146,0.354c0.095,0.087,0.22,0.152,0.354,0.146 C12.172,34.645,12.31,34.603,12.398,34.504L12.398,34.504z"/><path fill="#010101" d="M17.346,39.402c0.187-0.223,0.397-0.425,0.627-0.603c-0.034,0.026-0.067,0.052-0.101,0.078 c0.187-0.143,0.385-0.27,0.594-0.379c0.232-0.121,0.321-0.465,0.179-0.684c-0.152-0.236-0.436-0.309-0.684-0.179 c-0.501,0.262-0.959,0.627-1.322,1.061c-0.087,0.104-0.146,0.214-0.146,0.354c0,0.123,0.054,0.269,0.146,0.354 c0.095,0.087,0.22,0.152,0.354,0.146C17.118,39.542,17.262,39.502,17.346,39.402L17.346,39.402z"/><path fill="#010101" d="M20.973,42.983c0.166-0.179,0.346-0.345,0.539-0.494c-0.034,0.026-0.067,0.052-0.101,0.078 c0.222-0.171,0.46-0.32,0.71-0.446c0.108-0.054,0.198-0.185,0.23-0.299c0.033-0.12,0.018-0.279-0.05-0.385 c-0.154-0.239-0.434-0.305-0.684-0.179c-0.504,0.254-0.967,0.605-1.35,1.019c-0.089,0.097-0.146,0.22-0.146,0.354 c0,0.123,0.054,0.269,0.146,0.354c0.095,0.087,0.22,0.152,0.354,0.146C20.749,43.124,20.883,43.081,20.973,42.983L20.973,42.983z"/><path fill="#010101" d="M25.671,42.349c0.401,0.317,0.802,0.633,1.203,0.95c0.108,0.086,0.21,0.146,0.354,0.146 c0.123,0,0.269-0.054,0.354-0.146c0.087-0.095,0.152-0.22,0.146-0.354c-0.006-0.123-0.045-0.273-0.146-0.354 c-0.401-0.317-0.802-0.633-1.203-0.95c-0.108-0.086-0.21-0.146-0.354-0.146c-0.123,0-0.269,0.054-0.354,0.146 c-0.087,0.095-0.152,0.22-0.146,0.354C25.53,42.119,25.569,42.269,25.671,42.349L25.671,42.349z"/><path fill="#010101" d="M29.732,38.672c0.369,0.365,0.738,0.73,1.106,1.096c0.091,0.091,0.225,0.146,0.354,0.146 c0.123,0,0.269-0.054,0.354-0.146c0.087-0.095,0.152-0.22,0.146-0.354c-0.006-0.132-0.05-0.258-0.146-0.354 c-0.369-0.365-0.738-0.73-1.106-1.096c-0.091-0.091-0.225-0.146-0.354-0.146c-0.123,0-0.269,0.054-0.354,0.146 c-0.087,0.095-0.152,0.22-0.146,0.354C29.592,38.451,29.636,38.577,29.732,38.672L29.732,38.672z"/><path fill="#010101" d="M34.294,33.714c0.029,0.021,0.057,0.043,0.085,0.064c-0.034-0.026-0.067-0.052-0.101-0.078 c0.383,0.297,0.726,0.64,1.023,1.023c-0.026-0.034-0.052-0.067-0.078-0.101c0.035,0.045,0.069,0.091,0.102,0.137 c0.079,0.108,0.165,0.193,0.299,0.23c0.12,0.033,0.279,0.018,0.385-0.05c0.107-0.069,0.201-0.171,0.23-0.299 c0.028-0.124,0.027-0.278-0.05-0.385c-0.195-0.267-0.404-0.524-0.637-0.759c-0.233-0.236-0.487-0.446-0.753-0.644 c-0.097-0.073-0.274-0.081-0.385-0.05c-0.116,0.032-0.242,0.122-0.299,0.23c-0.061,0.116-0.092,0.257-0.05,0.385 c0.017,0.04,0.034,0.08,0.05,0.119C34.159,33.61,34.219,33.67,34.294,33.714L34.294,33.714z"/></svg>